<svg xmlns="http://www.w3.org/2000/svg" xmlns:xlink="http://www.w3.org/1999/xlink" viewBox="0 0 249.2791 42.6977"><defs><style>.a{fill:none;}.b{isolation:isolate;}.c{clip-path:url(#a);}.d{clip-path:url(#b);}.e{fill:url(#c);}.f,.h{mix-blend-mode:multiply;}.g{clip-path:url(#e);}.h{opacity:0.3;}.i{clip-path:url(#g);}.j{fill:url(#h);}.k{clip-path:url(#i);}.l{fill:url(#j);}.m{clip-path:url(#l);}.n{clip-path:url(#n);}.o{fill:url(#o);}.p{clip-path:url(#p);}.q{fill:url(#q);}.r{clip-path:url(#r);}.s{fill:url(#s);}.t{fill:url(#u);}.u{clip-path:url(#w);}.v{clip-path:url(#x);}.w{fill:url(#y);}.x{clip-path:url(#z);}.y{fill:url(#aa);}.z{clip-path:url(#ac);}.aa{clip-path:url(#ae);}.ab{fill:url(#af);}.ac{clip-path:url(#ag);}.ad{fill:url(#ah);}.ae{clip-path:url(#aj);}.af{clip-path:url(#al);}.ag{fill:url(#am);}.ah{clip-path:url(#an);}.ai{fill:url(#ao);}.aj{clip-path:url(#ap);}.ak{fill:url(#aq);}.al{clip-path:url(#ar);}.am{fill:url(#as);}.an{clip-path:url(#au);}.ao{clip-path:url(#av);}.ap{fill:url(#aw);}.aq{fill:#4e535b;}</style><clipPath id="a"><rect class="a" x="-34.4186" y="-34.8372" width="612" height="792"/></clipPath><clipPath id="b"><path class="a" d="M14.8624,3.2848a9.9713,9.9713,0,0,0-.246,1.699c.196.097.392.201.581.31a9.0737,9.0737,0,0,1,4.518,8.517,8.961,8.961,0,0,0,1.674.614,9.1655,9.1655,0,0,0,1.512.255,12.3506,12.3506,0,0,0-7.543-12.93,14.46,14.46,0,0,0-.496,1.535"/></clipPath><linearGradient id="c" x1="-34.4186" y1="757.161" x2="-33.4186" y2="757.161" gradientTransform="matrix(0, 19.4004, 19.4004, 0, -14670.1431, 667.3668)" gradientUnits="userSpaceOnUse"><stop offset="0" stop-color="#ab252f"/><stop offset="0.0141" stop-color="#ab252f"/><stop offset="0.1308" stop-color="#c93f2b"/><stop offset="0.2972" stop-color="#f06026"/><stop offset="0.4336" stop-color="#f59771"/><stop offset="0.5841" stop-color="#facebd"/><stop offset="0.6919" stop-color="#fef2ed"/><stop offset="0.7453" stop-color="#fff"/><stop offset="1" stop-color="#fff"/></linearGradient><clipPath id="e"><rect class="a" x="14.6161" y="1.7488" width="8.3808" height="12.931"/></clipPath><clipPath id="g"><path class="a" d="M14.6164,4.9848c.196.095.392.2.581.309a9.0737,9.0737,0,0,1,4.518,8.517,8.987,8.987,0,0,0,1.674.614,9.0616,9.0616,0,0,0,1.512.255,12.3547,12.3547,0,0,0-7.543-12.931,14.4159,14.4159,0,0,0-.495,1.539,9.3488,9.3488,0,0,0-.247,1.697"/></clipPath><linearGradient id="h" x1="-34.4186" y1="757.1628" x2="-33.4186" y2="757.1628" gradientTransform="matrix(14.4863, 0, 0, -14.4863, 506.3197, 10976.7116)" gradientUnits="userSpaceOnUse"><stop offset="0" stop-color="#3c3a3c"/><stop offset="0.05" stop-color="#3c3a3c"/><stop offset="0.0576" stop-color="#3f3d3f"/><stop offset="0.2448" stop-color="#838183"/><stop offset="0.4137" stop-color="#b8b7b8"/><stop offset="0.5586" stop-color="#dfdedf"/><stop offset="0.674" stop-color="#f6f6f6"/><stop offset="0.7453" stop-color="#fff"/><stop offset="1" stop-color="#fff"/></linearGradient><clipPath id="i"><path class="a" d="M30.5224,2.4728a12.34,12.34,0,0,0-6.075,12.207,9.1478,9.1478,0,0,0,1.512-.255,8.9967,8.9967,0,0,0,1.675-.614,9.069,9.069,0,0,1,4.519-8.517c.187-.109.384-.213.58-.31a9.7225,9.7225,0,0,0-.248-1.699,14.3228,14.3228,0,0,0-.494-1.535,12.5766,12.5766,0,0,0-1.469.723"/></clipPath><linearGradient id="j" x1="-34.4186" y1="757.161" x2="-33.4186" y2="757.161" gradientTransform="translate(-630.8661 14697.4222) rotate(-180) scale(19.4004)" xlink:href="#c"/><clipPath id="l"><rect class="a" x="24.3524" y="1.7488" width="8.3809" height="12.931"/></clipPath><clipPath id="n"><path class="a" d="M32.7334,4.9848c-.195.095-.393.2-.58.309a9.0672,9.0672,0,0,0-4.519,8.517,8.9967,8.9967,0,0,1-1.675.614,9.0673,9.0673,0,0,1-1.511.255,12.3363,12.3363,0,0,1,6.074-12.207,12.5836,12.5836,0,0,1,1.469-.724,14.4159,14.4159,0,0,1,.495,1.539,9.63,9.63,0,0,1,.247,1.697"/></clipPath><linearGradient id="o" x1="-34.4186" y1="757.1628" x2="-33.4186" y2="757.1628" gradientTransform="translate(-458.9704 10976.7116) rotate(180) scale(14.4863)" xlink:href="#h"/><clipPath id="p"><path class="a" d="M41.2194,21.0168a9.0684,9.0684,0,0,1-9.635-.346,8.9405,8.9405,0,0,0-2.345,2.325,12.3345,12.3345,0,0,0,13.609.843,12.6379,12.6379,0,0,0,1.361-.909,14.4254,14.4254,0,0,0-1.084-1.197,9.7229,9.7229,0,0,0-1.347-1.064c-.181.121-.369.24-.559.348"/></clipPath><linearGradient id="q" x1="-34.4186" y1="757.1921" x2="-33.4186" y2="757.1921" gradientTransform="matrix(0, -19.3999, -19.3999, 0, 14726.2112, -635.6069)" xlink:href="#c"/><clipPath id="r"><path class="a" d="M27.9294,25.7728a9.177,9.177,0,0,0-.304,1.756,9.0724,9.0724,0,0,1,5.116,8.172c.001.217-.006.441-.022.657a9.7357,9.7357,0,0,0,1.596.636,14.7567,14.7567,0,0,0,1.577.339,12.3426,12.3426,0,0,0-7.427-12.997,9.1931,9.1931,0,0,0-.536,1.437"/></clipPath><linearGradient id="s" x1="-34.4186" y1="757.1483" x2="-33.4186" y2="757.1483" gradientTransform="translate(-14656.8297 -628.0499) rotate(-90.0001) scale(19.4)" gradientUnits="userSpaceOnUse"><stop offset="0" stop-color="#ab2537"/><stop offset="0.0141" stop-color="#ab2537"/><stop offset="0.1308" stop-color="#c93f30"/><stop offset="0.2972" stop-color="#f06026"/><stop offset="0.4336" stop-color="#f59771"/><stop offset="0.5841" stop-color="#facebd"/><stop offset="0.6919" stop-color="#fef2ed"/><stop offset="0.7453" stop-color="#fff"/><stop offset="1" stop-color="#fff"/></linearGradient><linearGradient id="u" x1="-34.4186" y1="757.1483" x2="-33.4186" y2="757.1483" gradientTransform="translate(-14656.8297 -628.0499) rotate(-90.0001) scale(19.4)" xlink:href="#c"/><clipPath id="w"><rect class="a" x="27.6258" y="24.3358" width="8.3741" height="12.997"/></clipPath><clipPath id="x"><path class="a" d="M28.4654,24.3358a9.3331,9.3331,0,0,0-.536,1.437,9.0965,9.0965,0,0,0-.304,1.757,9.0669,9.0669,0,0,1,5.116,8.171c.001.217-.006.441-.022.658a9.8866,9.8866,0,0,0,1.596.635,15.0139,15.0139,0,0,0,1.577.339,12.5291,12.5291,0,0,0,.107-1.632,12.3351,12.3351,0,0,0-7.534-11.365"/></clipPath><linearGradient id="y" x1="-34.4186" y1="757.1632" x2="-33.4186" y2="757.1632" gradientTransform="matrix(0, 26.4297, 26.4297, 0, -19979.7524, 930.8696)" gradientUnits="userSpaceOnUse"><stop offset="0" stop-color="#fff"/><stop offset="0.2547" stop-color="#fff"/><stop offset="0.3503" stop-color="#fbfbfb"/><stop offset="0.4443" stop-color="#efefef"/><stop offset="0.5377" stop-color="#dbdbdb"/><stop offset="0.6307" stop-color="silver"/><stop offset="0.7236" stop-color="#9c9c9c"/><stop offset="0.8162" stop-color="#707070"/><stop offset="0.9081" stop-color="#3d3d3d"/><stop offset="0.9985" stop-color="#020202"/><stop offset="1" stop-color="#010101"/></linearGradient><clipPath id="z"><path class="a" d="M11.3444,35.6978a12.6949,12.6949,0,0,0,.107,1.632,14.708,14.708,0,0,0,1.579-.338,10.0421,10.0421,0,0,0,1.595-.635c-.016-.218-.024-.441-.023-.658a9.0752,9.0752,0,0,1,5.116-8.173,8.9493,8.9493,0,0,0-.304-1.756,9.0578,9.0578,0,0,0-.536-1.436,12.3342,12.3342,0,0,0-7.534,11.364"/></clipPath><linearGradient id="aa" x1="-34.4186" y1="757.1483" x2="-33.4186" y2="757.1483" gradientTransform="matrix(19.4, 0, 0, -19.4, 674.4417, 14719.4739)" xlink:href="#c"/><clipPath id="ac"><rect class="a" x="11.3446" y="24.3328" width="8.375" height="12.997"/></clipPath><clipPath id="ae"><path class="a" d="M14.6244,36.3568c-.014-.218-.023-.442-.022-.658a9.0743,9.0743,0,0,1,5.117-8.173,8.9732,8.9732,0,0,0-.841-3.193,12.3382,12.3382,0,0,0-7.534,11.365,12.5183,12.5183,0,0,0,.108,1.632,14.4933,14.4933,0,0,0,1.58-.339,9.4993,9.4993,0,0,0,1.592-.634"/></clipPath><linearGradient id="af" x1="-34.4186" y1="757.1409" x2="-33.4186" y2="757.1409" gradientTransform="matrix(0, -14.486, -14.486, 0, 10983.4757, -456.5315)" xlink:href="#h"/><clipPath id="ag"><path class="a" d="M4.2184,21.7308a14.342,14.342,0,0,0-1.082,1.196,12.6829,12.6829,0,0,0,1.36.91,12.3365,12.3365,0,0,0,13.609-.844,9.2152,9.2152,0,0,0-.976-1.182A8.98,8.98,0,0,0,15.76,20.67a9.0722,9.0722,0,0,1-9.636.344c-.188-.108-.378-.226-.558-.349a9.8694,9.8694,0,0,0-1.348,1.066"/></clipPath><linearGradient id="ah" x1="-34.4186" y1="757.192" x2="-33.4186" y2="757.192" gradientTransform="translate(669.6864 -14665.0225) scale(19.3987)" xlink:href="#c"/><clipPath id="aj"><rect class="a" x="3.1366" y="20.6648" width="14.9687" height="4.825"/></clipPath><clipPath id="al"><path class="a" d="M5.5664,20.6648c.181.123.37.242.558.349a9.0643,9.0643,0,0,0,9.635-.346,8.989,8.989,0,0,1,2.346,2.326,12.3569,12.3569,0,0,1-14.969-.067,14.0609,14.0609,0,0,1,1.084-1.198,9.6465,9.6465,0,0,1,1.346-1.064"/></clipPath><linearGradient id="am" x1="-34.4186" y1="757.1816" x2="-33.4186" y2="757.1816" gradientTransform="translate(10979.7912 510.2417) rotate(90) scale(14.4868)" xlink:href="#h"/><clipPath id="an"><path class="a" d="M27.8964,19.5308a12.3358,12.3358,0,0,0,2.619,19.338,12.44,12.44,0,0,0,3.061,1.255,1.63,1.63,0,0,0,1.986-1.162c.147-.538.332-1.631.332-1.631a15.6806,15.6806,0,0,1-1.579-.337,10.045,10.045,0,0,1-2.17-.946,9.0789,9.0789,0,0,1-4.216-10.276,9.2766,9.2766,0,0,1,2.286-3.959,9.0758,9.0758,0,0,1,11.007-1.487,10.0608,10.0608,0,0,1,1.903,1.407,14.9683,14.9683,0,0,1,1.084,1.197s.852-.705,1.246-1.102a1.6293,1.6293,0,0,0,.012-2.3,12.333,12.333,0,0,0-17.571.003"/></clipPath><linearGradient id="ao" x1="-34.4186" y1="757.0877" x2="-33.4186" y2="757.0877" gradientTransform="matrix(0, 17.1456, 17.1456, 0, -12946.0632, 601.0528)" gradientUnits="userSpaceOnUse"><stop offset="0" stop-color="#f16825"/><stop offset="0.2641" stop-color="#f16825"/><stop offset="0.4288" stop-color="#e85e26"/><stop offset="0.7049" stop-color="#d04427"/><stop offset="0.717" stop-color="#cf4327"/><stop offset="1" stop-color="#ab252f"/></linearGradient><clipPath id="ap"><path class="a" d="M4.4934,17.5008a12.4983,12.4983,0,0,0-2.616,2.023,1.6329,1.6329,0,0,0,.012,2.303c.394.396,1.247,1.102,1.247,1.102a15.3409,15.3409,0,0,1,1.082-1.198,10.0135,10.0135,0,0,1,1.904-1.407,9.0786,9.0786,0,0,1,11.007,1.487,9.2454,9.2454,0,0,1,2.285,3.959,9.0706,9.0706,0,0,1-4.213,10.275,10.0267,10.0267,0,0,1-2.172.946,15.5629,15.5629,0,0,1-1.578.339s.183,1.091.332,1.631a1.6261,1.6261,0,0,0,1.985,1.16,12.3353,12.3353,0,1,0-9.275-22.62"/></clipPath><linearGradient id="aq" x1="-34.4186" y1="757.136" x2="-33.4186" y2="757.136" gradientTransform="matrix(0, 39.4751, 39.4751, 0, -29875.358, 1369.715)" xlink:href="#ao"/><clipPath id="ar"><path class="a" d="M33.5674,1.22c-.541.143-1.579.53-1.579.53a15.633,15.633,0,0,1,.497,1.535,10.0326,10.0326,0,0,1,.266,2.353,9.0777,9.0777,0,0,1-6.793,8.787,9.1529,9.1529,0,0,1-2.284.287,9.2138,9.2138,0,0,1-2.285-.287,9.0735,9.0735,0,0,1-6.792-8.787,10.0869,10.0869,0,0,1,.267-2.353,15.6583,15.6583,0,0,1,.494-1.535s-1.037-.387-1.577-.53a1.63,1.63,0,0,0-1.998,1.141,12.34,12.34,0,0,0,11.891,15.612,12.2344,12.2344,0,0,0,3.102-.398,12.326,12.326,0,0,0,8.789-15.214,1.6321,1.6321,0,0,0-1.572-1.198,1.6054,1.6054,0,0,0-.426.057"/></clipPath><linearGradient id="as" x1="-34.4186" y1="757.115" x2="-33.4186" y2="757.115" gradientTransform="matrix(0, 42.1545, 42.1545, 0, -31892.1166, 1444.654)" xlink:href="#ao"/><clipPath id="au"><rect class="a" x="29.2391" y="20.6678" width="14.9697" height="4.825"/></clipPath><clipPath id="av"><path class="a" d="M43.1234,21.7308a9.6262,9.6262,0,0,0-1.345-1.063c-.181.122-.369.241-.559.349a9.0706,9.0706,0,0,1-9.635-.346,9.0456,9.0456,0,0,0-1.369,1.142,9.2245,9.2245,0,0,0-.976,1.183,12.3309,12.3309,0,0,0,13.608.842,12.2077,12.2077,0,0,0,1.361-.909,14.2516,14.2516,0,0,0-1.085-1.198"/></clipPath><linearGradient id="aw" x1="-34.4186" y1="757.132" x2="-33.4186" y2="757.132" gradientTransform="matrix(24.1772, 0, 0, -24.1772, 861.3454, 18328.8051)" xlink:href="#y"/></defs><title>Chandler Regional Medical Center logo</title><g class="b"><g class="c"><g class="d"><rect class="e" x="12.2004" y="0.4448" width="13.728" height="15.5402" transform="translate(-1.6628 9.3622) rotate(-26.4797)"/></g><g class="c"><g class="f"><g class="g"><g class="h"><g class="g"><g class="i"><rect class="j" x="14.6164" y="1.7489" width="8.896" height="12.931"/></g></g></g></g></g></g><g class="k"><rect class="l" x="20.5153" y="1.3508" width="15.5402" height="13.728" transform="translate(8.3204 29.87) rotate(-63.5203)"/></g><g class="c"><g class="f"><g class="m"><g class="h"><g class="m"><g class="n"><rect class="o" x="23.8374" y="1.7489" width="8.896" height="12.931"/></g></g></g></g></g></g><g class="p"><rect class="q" x="33.432" y="15.8617" width="6.5847" height="15.2903" transform="translate(11.0066 58.7183) rotate(-86.4791)"/></g><g class="r"><rect class="s" x="24.7332" y="23.1041" width="14.1595" height="15.4604" transform="matrix(0.8337, -0.5522, 0.5522, 0.8337, -11.7368, 22.6956)"/></g><g class="r"><rect class="t" x="24.7332" y="23.1041" width="14.1595" height="15.4604" transform="matrix(0.8337, -0.5522, 0.5522, 0.8337, -11.7368, 22.6956)"/></g><g class="c"><g class="f"><g class="u"><g class="v"><rect class="w" x="26.224" y="23.5379" width="11.1768" height="14.5929" transform="translate(-6.3194 8.2788) rotate(-13.5006)"/></g></g></g></g><g class="x"><rect class="y" x="7.8019" y="23.7528" width="15.459" height="14.1581" transform="matrix(0.5522, -0.8337, 0.8337, 0.5522, -18.7498, 26.7543)"/></g><g class="c"><g class="f"><g class="z"><g class="h"><g class="z"><g class="aa"><rect class="ab" x="8.6561" y="23.1097" width="13.7515" height="15.4432" transform="translate(-13.335 11.8969) rotate(-30.0007)"/></g></g></g></g></g></g><g class="ac"><rect class="ad" x="2.9762" y="20.2105" width="15.2894" height="6.5856" transform="translate(-1.4234 0.6966) rotate(-3.5209)"/></g><g class="c"><g class="f"><g class="ae"><g class="h"><g class="ae"><g class="af"><rect class="ag" x="2.7199" y="17.3028" width="15.802" height="12.4011" transform="translate(-10.3289 8.4596) rotate(-30.0007)"/></g></g></g></g></g></g><g class="ah"><rect class="ai" x="17.9617" y="11.4115" width="33.4683" height="33.3787" transform="translate(-9.503 34.4191) rotate(-47.14)"/></g><g class="aj"><rect class="ak" x="-4.086" y="11.4078" width="33.4697" height="33.3801" transform="translate(-16.5512 18.2573) rotate(-47.14)"/></g><g class="al"><rect class="am" x="8.9488" y="-5.2488" width="29.4552" height="29.4552" transform="translate(0.2321 19.518) rotate(-45)"/></g><g class="c"><g class="f"><g class="an"><g class="ao"><rect class="ap" x="28.8923" y="19.5521" width="15.6632" height="7.9084" transform="translate(-3.1742 5.9183) rotate(-8.8336)"/></g></g></g><path class="aq" d="M62.7962,38.3986a5.9492,5.9492,0,0,1-2.83.707c-2.991,0-4.731-2.048-4.731-4.893a4.8365,4.8365,0,0,1,4.923-5.055,5.4074,5.4074,0,0,1,2.447.515v1.224a4.9306,4.9306,0,0,0-2.418-.619c-2.24,0-3.566,1.709-3.566,3.876,0,2.255,1.341,3.831,3.478,3.831a4.7268,4.7268,0,0,0,2.329-.633Z"/><path class="aq" d="M63.9808,28.5236h1.297v4.303a3.6841,3.6841,0,0,1,2.373-1.016c1.091,0,2.122.648,2.122,2.476v4.672h-1.297v-4.246c0-.986-.25-1.753-1.209-1.753a3.1772,3.1772,0,0,0-1.989.943v5.056h-1.297Z"/><path class="aq" d="M75.2112,38.207a2.9886,2.9886,0,0,1-2.078.899,2.1052,2.1052,0,0,1-2.241-2.182,1.977,1.977,0,0,1,1.179-1.886,4.3558,4.3558,0,0,1,1.755-.354l1.296-.044v-.369a1.2947,1.2947,0,0,0-1.444-1.414,3.6209,3.6209,0,0,0-1.901.545l-.457-.899a4.8931,4.8931,0,0,1,2.52-.692c1.577,0,2.58.751,2.58,2.431v2.535a10.6917,10.6917,0,0,0,.131,2.182h-1.119Zm-1.224-2.594a2.8127,2.8127,0,0,0-1.223.25,1.0953,1.0953,0,0,0-.545.988,1.1306,1.1306,0,0,0,1.224,1.194,2.3893,2.3893,0,0,0,1.679-.796v-1.68Z"/><path class="aq" d="M77.9769,31.987h1.105l.147.854a3.8191,3.8191,0,0,1,2.417-1.03c1.105,0,2.123.647,2.123,2.475v4.6731h-1.297V34.713c0-.987-.236-1.753-1.194-1.753a3.2468,3.2468,0,0,0-2.004.943v5.0561h-1.297Z"/><path class="aq" d="M84.9583,35.5541a3.5837,3.5837,0,0,1,3.684-3.743,3.9545,3.9545,0,0,1,1.091.131v-3.418H91.03V38.62a5.3136,5.3136,0,0,1-2.329.486,3.43,3.43,0,0,1-3.743-3.552m4.775,2.284v-4.775a2.9467,2.9467,0,0,0-1.018-.163,2.3887,2.3887,0,0,0-2.416,2.624,2.2729,2.2729,0,0,0,2.431,2.477,2.7509,2.7509,0,0,0,1.003-.163"/><path class="aq" d="M92.6839,28.5236h1.297v8.695c0,.531.162.693.531.693a1.5862,1.5862,0,0,0,.427-.088l.266,1.016a3.0076,3.0076,0,0,1-1.077.207,1.2976,1.2976,0,0,1-1.444-1.46Z"/><path class="aq" d="M95.5537,35.42c0-2.1211,1.164-3.61,2.948-3.61,1.827,0,2.888,1.4,2.888,3.625v.325H96.88a2.14,2.14,0,0,0,2.211,2.284,3.5767,3.5767,0,0,0,1.725-.471l.412.8991a4.4244,4.4244,0,0,1-2.299.633c-2.314,0-3.375-1.6941-3.375-3.685m4.495-.6331c-.029-.973-.501-1.946-1.547-1.946a1.7541,1.7541,0,0,0-1.622,1.946Z"/><path class="aq" d="M102.641,31.987h1.09l.148.854a2.6061,2.6061,0,0,1,1.96-1.03,1.6249,1.6249,0,0,1,.825.2051l-.457,1.15a1.4083,1.4083,0,0,0-.663-.177,2.3647,2.3647,0,0,0-1.606.9v5.07h-1.297Z"/><path class="aq" d="M110.82,29.2446h2.196a4.1028,4.1028,0,0,1,2.151.473,2.4219,2.4219,0,0,1,1.238,2.21,2.5008,2.5008,0,0,1-1.946,2.55v.029a4.8144,4.8144,0,0,1,1.18,1.562l1.725,2.89h-1.533l-1.592-2.698q-.6855-1.215-1.106-1.326h-1.001v4.024H110.82Zm2.181,4.614a2.37,2.37,0,0,0,1.253-.309,1.78,1.78,0,0,0,.177-2.83,2.2473,2.2473,0,0,0-1.415-.398h-.884v3.537Z"/><path class="aq" d="M117.86,35.42c0-2.1211,1.164-3.61,2.947-3.61,1.828,0,2.889,1.4,2.889,3.625v.325h-4.51a2.14,2.14,0,0,0,2.211,2.284,3.58,3.58,0,0,0,1.725-.471l.413.8991a4.4332,4.4332,0,0,1-2.3.633c-2.315,0-3.375-1.6941-3.375-3.685m4.495-.6331c-.03-.973-.501-1.946-1.548-1.946a1.7546,1.7546,0,0,0-1.621,1.946Z"/><path class="aq" d="M124.2076,40.4317a1.95,1.95,0,0,1,1.283-1.754.9762.9762,0,0,1-.487-.869,1.8057,1.8057,0,0,1,.781-1.356,2.425,2.425,0,0,1-1.119-2.1219,2.4964,2.4964,0,0,1,2.653-2.5061,3.1211,3.1211,0,0,1,1.341.266c.074.043.102.043.162-.016a2.0279,2.0279,0,0,1,1.518-.575,2.5191,2.5191,0,0,1,.428.045l-.295.973a2.1419,2.1419,0,0,0-.427-.0439,1.1485,1.1485,0,0,0-.62.162,2.4149,2.4149,0,0,1,.722,1.7529,2.5148,2.5148,0,0,1-2.755,2.535,2.7389,2.7389,0,0,1-.885-.1319,1.0285,1.0285,0,0,0-.309.7079c0,1.34,4.583.132,4.583,2.741,0,1.297-1.268,2.21-3.463,2.21-1.902,0-3.111-.766-3.111-2.0191m5.293-.0589c0-1.193-2.093-.9581-3.273-1.3411a1.4827,1.4827,0,0,0-.825,1.1791c0,.7959.825,1.2679,2.063,1.2679,1.326,0,2.035-.487,2.035-1.1059m-.635-5.9981a1.4349,1.4349,0,0,0-1.473-1.5179,1.3891,1.3891,0,0,0-1.46,1.503,1.425,1.425,0,0,0,1.475,1.5329,1.3927,1.3927,0,0,0,1.458-1.518"/><path class="aq" d="M131.5284,29.7178a.84.84,0,0,1,1.68,0,.8342.8342,0,0,1-.856.84.8094.8094,0,0,1-.824-.84m.192,2.269h1.296v6.972H131.72Z"/><path class="aq" d="M134.2693,35.465a3.3253,3.3253,0,1,1,6.618,0,3.3241,3.3241,0,1,1-6.618,0m5.276,0c0-1.503-.736-2.579-1.96-2.579-1.238,0-1.975,1.076-1.975,2.579,0,1.488.737,2.564,1.96,2.564,1.239,0,1.975-1.076,1.975-2.564"/><path class="aq" d="M142.1068,31.987h1.105l.147.854a3.8188,3.8188,0,0,1,2.416-1.03c1.107,0,2.124.647,2.124,2.475v4.6731h-1.297V34.713c0-.987-.236-1.753-1.194-1.753a3.2492,3.2492,0,0,0-2.005.943v5.0561h-1.296Z"/><path class="aq" d="M153.3377,38.207a2.9929,2.9929,0,0,1-2.079.899,2.1052,2.1052,0,0,1-2.241-2.182,1.9777,1.9777,0,0,1,1.178-1.886,4.3631,4.3631,0,0,1,1.755-.354l1.297-.044v-.369a1.2952,1.2952,0,0,0-1.444-1.414,3.6209,3.6209,0,0,0-1.901.545l-.457-.899a4.894,4.894,0,0,1,2.521-.692c1.576,0,2.578.751,2.578,2.431v2.535a10.6631,10.6631,0,0,0,.132,2.182h-1.12Zm-1.225-2.594a2.8043,2.8043,0,0,0-1.222.25,1.095,1.095,0,0,0-.547.988,1.1306,1.1306,0,0,0,1.224,1.194,2.39,2.39,0,0,0,1.68-.796v-1.68Z"/><path class="aq" d="M156.1043,28.5236h1.297v8.695c0,.531.161.693.53.693a1.5786,1.5786,0,0,0,.427-.088l.266,1.016a3.0076,3.0076,0,0,1-1.077.207,1.2968,1.2968,0,0,1-1.443-1.46Z"/><path class="aq" d="M163.0448,29.2448h1.208l2.667,3.951c.383.589.635.958.871,1.356h.029c.221-.384.486-.826.855-1.416l2.476-3.891h1.223v9.714h-1.312V32.96c0-.457,0-1.047.015-1.532h-.015a13.3458,13.3458,0,0,1-.692,1.149l-2.24,3.566h-.649l-2.461-3.64a9.6392,9.6392,0,0,1-.663-1.047h-.031c.031.428.031,1.061.031,1.475v6.028h-1.312Z"/><path class="aq" d="M173.6987,35.42c0-2.1211,1.164-3.61,2.95-3.61,1.827,0,2.888,1.4,2.888,3.625v.325h-4.51a2.1387,2.1387,0,0,0,2.21,2.284,3.5665,3.5665,0,0,0,1.724-.471l.413.8991a4.4271,4.4271,0,0,1-2.299.633c-2.314,0-3.376-1.6941-3.376-3.685m4.496-.6331c-.029-.973-.501-1.946-1.546-1.946a1.7534,1.7534,0,0,0-1.622,1.946Z"/><path class="aq" d="M180.42,35.5541a3.5823,3.5823,0,0,1,3.683-3.743,3.9475,3.9475,0,0,1,1.09.131v-3.418h1.298V38.62a5.3121,5.3121,0,0,1-2.328.486,3.43,3.43,0,0,1-3.743-3.552m4.773,2.284v-4.775a2.9306,2.9306,0,0,0-1.016-.163,2.3889,2.3889,0,0,0-2.417,2.624,2.2737,2.2737,0,0,0,2.432,2.477,2.7436,2.7436,0,0,0,1.001-.163"/><path class="aq" d="M187.9924,29.7178a.8406.8406,0,0,1,1.681,0,.8348.8348,0,0,1-.856.84.81.81,0,0,1-.825-.84m.192,2.269h1.297v6.972h-1.297Z"/><path class="aq" d="M190.7313,35.5388a3.5212,3.5212,0,0,1,3.538-3.728,3.64,3.64,0,0,1,1.782.441v1.135a2.9456,2.9456,0,0,0-1.679-.501,2.3265,2.3265,0,0,0-2.3,2.579c0,1.636.87,2.565,2.21,2.565a3.2678,3.2678,0,0,0,1.667-.487l.383.914a4.0522,4.0522,0,0,1-2.211.649,3.2873,3.2873,0,0,1-3.39-3.567"/><path class="aq" d="M201.18,38.207a2.9905,2.9905,0,0,1-2.078.899,2.1057,2.1057,0,0,1-2.241-2.182,1.9748,1.9748,0,0,1,1.18-1.886,4.3383,4.3383,0,0,1,1.753-.354l1.298-.044v-.369a1.2955,1.2955,0,0,0-1.445-1.414,3.6247,3.6247,0,0,0-1.902.545l-.456-.899a4.8906,4.8906,0,0,1,2.52-.692c1.577,0,2.579.751,2.579,2.431v2.535a10.484,10.484,0,0,0,.133,2.182h-1.12Zm-1.223-2.594a2.8108,2.8108,0,0,0-1.224.25,1.0972,1.0972,0,0,0-.545.988,1.13,1.13,0,0,0,1.222,1.194,2.3928,2.3928,0,0,0,1.682-.796v-1.68Z"/><path class="aq" d="M203.9476,28.5236h1.296v8.695c0,.531.163.693.531.693a1.5929,1.5929,0,0,0,.428-.088l.265,1.016a3.0023,3.0023,0,0,1-1.076.207,1.2976,1.2976,0,0,1-1.444-1.46Z"/><path class="aq" d="M217.9911,38.3986a5.9492,5.9492,0,0,1-2.83.707c-2.991,0-4.731-2.048-4.731-4.893a4.8365,4.8365,0,0,1,4.923-5.055,5.4106,5.4106,0,0,1,2.447.515v1.224a4.9266,4.9266,0,0,0-2.417-.619,3.5525,3.5525,0,0,0-3.567,3.876c0,2.255,1.342,3.831,3.478,3.831a4.7268,4.7268,0,0,0,2.329-.633Z"/><path class="aq" d="M218.5234,35.42c0-2.1211,1.164-3.61,2.95-3.61,1.827,0,2.888,1.4,2.888,3.625v.325h-4.51a2.1382,2.1382,0,0,0,2.21,2.284,3.57,3.57,0,0,0,1.724-.471l.413.8991a4.4271,4.4271,0,0,1-2.299.633c-2.314,0-3.376-1.6941-3.376-3.685m4.496-.6331c-.029-.973-.501-1.946-1.546-1.946a1.7534,1.7534,0,0,0-1.622,1.946Z"/><path class="aq" d="M225.5379,31.987h1.106l.147.854a3.8191,3.8191,0,0,1,2.417-1.03c1.105,0,2.123.647,2.123,2.475v4.6731h-1.297V34.713c0-.987-.236-1.753-1.194-1.753a3.2468,3.2468,0,0,0-2.005.943v5.0561h-1.297Z"/><path class="aq" d="M233.36,37.3957v-4.363h-1.193v-1.046h1.193v-1.591l1.296-.4139v2.0049h2.094l-.353,1.046h-1.741v4.112c0,.62.251.885.709.885a2.1609,2.1609,0,0,0,1.12-.3679l.428.8989a3.3261,3.3261,0,0,1-1.844.545,1.5592,1.5592,0,0,1-1.709-1.71"/><path class="aq" d="M237.2065,35.42c0-2.1211,1.164-3.61,2.948-3.61,1.827,0,2.888,1.4,2.888,3.625v.325h-4.509a2.1387,2.1387,0,0,0,2.21,2.284,3.5727,3.5727,0,0,0,1.724-.471l.413.8991a4.4244,4.4244,0,0,1-2.299.633c-2.314,0-3.375-1.6941-3.375-3.685m4.494-.6331c-.028-.973-.5-1.946-1.546-1.946a1.7527,1.7527,0,0,0-1.621,1.946Z"/><path class="aq" d="M244.2938,31.987h1.09l.148.854a2.6061,2.6061,0,0,1,1.96-1.03,1.6222,1.6222,0,0,1,.825.2051l-.456,1.15a1.4083,1.4083,0,0,0-.663-.177,2.37,2.37,0,0,0-1.608.9v5.07h-1.296Z"/><path class="aq" d="M55.688,2.371h5.005c5.689,0,8.79,3.174,8.79,7.936,0,4.883-3.467,8.154-9.058,8.154H55.688Zm4.786,13.698c4.249,0,5.859-2.686,5.859-5.713,0-3.369-1.977-5.593-5.908-5.593H58.619V16.069Z"/><path class="aq" d="M70.9694,3.2988a1.7956,1.7956,0,1,1,1.782,1.734,1.7208,1.7208,0,0,1-1.782-1.734m.318,3.614h2.929v11.548h-2.929Z"/><path class="aq" d="M75.2119,20.8544a3.1119,3.1119,0,0,1,2.076-2.784,1.6287,1.6287,0,0,1-.757-1.441,2.8234,2.8234,0,0,1,1.391-2.172,4.043,4.043,0,0,1-1.929-3.59c0-2.124,1.563-4.247,4.712-4.247A4.7425,4.7425,0,0,1,83,7.1334a.2611.2611,0,0,0,.293-.049,3.5427,3.5427,0,0,1,2.784-1.002,6.766,6.766,0,0,1,.782.049l-.587,2.1a3.4062,3.4062,0,0,0-.854-.122,1.8168,1.8168,0,0,0-.855.195,3.9655,3.9655,0,0,1,1.026,2.735c0,2.588-1.978,4.272-4.785,4.272a4.7762,4.7762,0,0,1-1.417-.196,1.6122,1.6122,0,0,0-.292.856c0,2.075,7.592.146,7.592,4.468,0,2.1-2.099,3.808-6.104,3.808-3.393,0-5.371-1.391-5.371-3.393m8.693-.098c0-1.66-3.59-1.319-5.153-1.929a1.9443,1.9443,0,0,0-.927,1.514c0,1.148,1.22,1.855,3.15,1.855,1.757,0,2.93-.585,2.93-1.44M82.83,10.99a2.0657,2.0657,0,0,0-2.075-2.173,1.9389,1.9389,0,0,0-2.003,2.148,2.0066,2.0066,0,0,0,2.028,2.149,1.9423,1.9423,0,0,0,2.05-2.124"/><path class="aq" d="M88.1522,6.9128h2.491l.293,1.293a6.448,6.448,0,0,1,3.955-1.585c1.831,0,3.71.903,3.71,4.198v7.642h-2.929v-6.738c0-1.416-.293-2.564-1.782-2.564a4.7191,4.7191,0,0,0-2.832,1.221v8.081h-2.906Z"/><path class="aq" d="M100.3074,3.2988a1.795,1.795,0,1,1,1.783,1.734,1.72,1.72,0,0,1-1.783-1.734m.317,3.614h2.931v11.548h-2.931Z"/><path class="aq" d="M107.46,15.6047V9.1837h-2.074V6.9127h2.074V4.2267l2.906-.854v3.54h3.491l-.708,2.271h-2.783v5.713c0,1.075.367,1.464,1.122,1.464a3.272,3.272,0,0,0,1.759-.561l.879,2.002a6.6,6.6,0,0,1-3.37.903,2.9545,2.9545,0,0,1-3.296-3.1"/><path class="aq" d="M114.98,21.4636a3.8021,3.8021,0,0,0,1.734.441c1.294,0,2.318-.879,3.223-3.516l-5.201-11.476h3.028l3.491,8.203h.049l2.808-8.203h2.953l-4.418,11.915c-1.807,4.809-3.711,5.42-5.811,5.42a6.3615,6.3615,0,0,1-2.588-.537Z"/><polygon class="aq" points="132.787 2.371 135.717 2.371 135.717 9.013 143.53 9.013 143.53 2.371 146.484 2.371 146.484 18.461 143.53 18.461 143.53 11.502 135.717 11.502 135.717 18.461 132.787 18.461 132.787 2.371"/><path class="aq" d="M148.288,12.6994c0-3.4671,1.905-6.0791,5.2-6.0791,3.248,0,5.126,2.344,5.126,6.177v.683h-7.397a2.9527,2.9527,0,0,0,3.248,2.931,5.7859,5.7859,0,0,0,2.929-.783l.88,2.003a7.7289,7.7289,0,0,1-4.078,1.073c-4.224,0-5.908-2.88-5.908-6.0049m7.373-1.2451c-.049-1.319-.684-2.613-2.222-2.613a2.3541,2.3541,0,0,0-2.247,2.613Z"/><path class="aq" d="M166.9416,17.3629a4.7605,4.7605,0,0,1-3.321,1.342,3.6029,3.6029,0,0,1-3.833-3.687,3.2963,3.2963,0,0,1,1.952-3.149,7.1787,7.1787,0,0,1,2.979-.659l1.978-.073v-.366c0-1.343-.878-1.929-2.222-1.929a6.5436,6.5436,0,0,0-3.028.806l-.952-1.88a9.091,9.091,0,0,1,4.47-1.148c3.099,0,4.637,1.416,4.637,4.199v4.689a12.6728,12.6728,0,0,0,.22,2.953H167.38Zm-1.807-4.224a3.67,3.67,0,0,0-1.685.366,1.3945,1.3945,0,0,0-.708,1.319,1.5235,1.5235,0,0,0,1.709,1.587,3.5781,3.5781,0,0,0,2.246-.855V13.09Z"/><path class="aq" d="M171.621,1.1745h2.905v13.893c0,.806.317,1.05.854,1.05a2.3883,2.3883,0,0,0,.733-.146l.562,2.245a5.6886,5.6886,0,0,1-2.149.4159c-1.927,0-2.905-.953-2.905-2.784Z"/><path class="aq" d="M178.4618,15.6047V9.1837h-2.075V6.9127h2.075V4.2267l2.905-.854v3.54h3.491l-.707,2.271h-2.784v5.713c0,1.075.367,1.464,1.124,1.464a3.265,3.265,0,0,0,1.757-.561l.879,2.002a6.6017,6.6017,0,0,1-3.369.903,2.9545,2.9545,0,0,1-3.296-3.1"/><path class="aq" d="M186.308,1.1745h2.905v7.009a6.0586,6.0586,0,0,1,3.834-1.5629c1.829,0,3.685.903,3.685,4.1989v7.6421h-2.905V11.7225c0-1.416-.293-2.564-1.782-2.564a4.6669,4.6669,0,0,0-2.832,1.221v8.0821h-2.905Z"/><path class="aq" d="M198.8677,16.3453v2.109h-.327v-2.109h-.667v-.298h1.664v.298Zm2.887,2.109v-1.737l-.575,1.139h-.317l-.575-1.139v1.737h-.326v-2.407h.326l.734,1.46.733-1.46h.321v2.407Z"/></g></g></g></svg>