<?xml version="1.0" encoding="UTF-8"?>
<svg version="1.1" xmlns="http://www.w3.org/2000/svg" width="1600" height="1600">
<path d="M0 0 C1.07200164 -0.00570851 1.07200164 -0.00570851 2.16565987 -0.01153234 C4.56685491 -0.02186076 6.9678141 -0.01793966 9.36902523 -0.01409245 C11.1054563 -0.01854419 12.84188533 -0.02385803 14.57831138 -0.02996117 C19.35532704 -0.04415959 24.13227768 -0.04580411 28.90931141 -0.04536426 C34.05948081 -0.04701088 39.20962329 -0.06007461 44.3597784 -0.07155704 C55.62439123 -0.09441962 66.88898522 -0.10232922 78.1536181 -0.10738349 C85.18764193 -0.11063947 92.2216603 -0.11716141 99.25568104 -0.12438488 C118.73130683 -0.14395353 138.20692753 -0.16035583 157.68256378 -0.16326141 C158.92920138 -0.16344898 160.17583898 -0.16363655 161.46025347 -0.16382981 C163.98750428 -0.16419606 166.51475509 -0.16455976 169.0420059 -0.16492092 C170.29653834 -0.16510373 171.55107078 -0.16528654 172.84361935 -0.16547489 C174.09968355 -0.16565544 175.35574775 -0.16583599 176.6498745 -0.16602201 C196.99812266 -0.16956289 217.34626493 -0.19657874 237.69447637 -0.23397278 C258.58636755 -0.27205858 279.4782062 -0.29141892 300.37013286 -0.29172093 C312.09985362 -0.29230548 323.82944813 -0.30079629 335.55913639 -0.32971859 C345.54845822 -0.35423621 355.53760777 -0.3615128 365.52695156 -0.34647106 C370.62214446 -0.33930345 375.71699718 -0.34015341 380.81215191 -0.36288166 C385.48139972 -0.38351008 390.15004666 -0.38083516 394.81928825 -0.36000682 C396.50373329 -0.35651929 398.18822203 -0.36139058 399.8726098 -0.37571125 C412.26272535 -0.47421849 423.60943777 1.08585144 432.97228146 10.04570675 C436.50213674 14.25831036 439.13051618 19.01811958 441.7812109 23.80992794 C443.58918888 27.07096284 445.45330402 30.29961247 447.31603146 33.52959347 C447.69230175 34.18361141 448.06857204 34.83762936 448.45624447 35.51146603 C461.11945982 57.38842237 476.15213491 78.26459864 492.82775021 97.26006222 C493.46067989 97.99224972 494.09360958 98.72443722 494.74571896 99.47881222 C496.42685422 101.41769591 498.12428995 103.34077894 499.82775021 105.26006222 C500.50064083 106.02576534 501.17353146 106.79146847 501.86681271 107.58037472 C509.96072803 116.70390471 518.44305933 125.45482095 527.82775021 133.26006222 C528.36464474 133.71075069 528.90153927 134.16143917 529.45470333 134.62578487 C568.17832916 167.04387911 612.38527935 189.49991504 659.93321896 206.04521847 C660.71310177 206.31680782 661.49298458 206.58839718 662.29650021 206.86821651 C663.71742579 207.35931767 665.14044479 207.84442797 666.56603146 208.3218298 C675.45216014 211.36043784 675.45216014 211.36043784 678.14025021 215.07256222 C679.08621875 218.08246213 679.26847296 220.11204257 678.82775021 223.26006222 C676.24486731 226.99089306 674.04434615 229.56771593 669.82775021 231.26006222 C667.72482216 231.51306188 667.72482216 231.51306188 665.4234705 231.51733112 C664.10252626 231.52700446 664.10252626 231.52700446 662.75489628 231.53687322 C661.31008297 231.53222742 661.31008297 231.53222742 659.8360815 231.52748775 C658.80940298 231.53201887 657.78272445 231.53654998 656.72493446 231.5412184 C653.27364671 231.55391069 649.82251579 231.55223887 646.37120724 231.55058956 C643.90075127 231.55657207 641.43029717 231.56337696 638.95984554 231.57094479 C632.93713949 231.58680646 626.91449542 231.59305482 620.89177425 231.59416954 C615.99162145 231.59512034 611.09148154 231.59923227 606.19133282 231.60557079 C592.28548346 231.623191 578.37966497 231.6324093 564.47380437 231.63090985 C563.72403423 231.63082993 562.97426409 231.63075002 562.20177364 231.63066769 C561.07573687 231.63054504 561.07573687 231.63054504 559.92695187 231.63041992 C547.78277414 231.62960843 535.63872086 231.64870949 523.49457909 231.67694442 C511.01225904 231.70573522 498.52999952 231.71948108 486.04764545 231.71775687 C479.04513638 231.71709475 472.04275749 231.72250766 465.04027843 231.74411297 C458.44600328 231.76432851 451.85195481 231.76358782 445.25764942 231.7490797 C442.84468655 231.7469958 440.43170634 231.75166733 438.01877308 231.76380062 C420.80399104 231.84471558 406.90899842 231.09607424 392.45275021 220.76006222 C391.55918819 220.14203732 390.66562618 219.52401241 389.74498653 218.88725948 C387.08757822 217.03583122 384.45397572 215.15539702 381.82775021 213.26006222 C381.0867004 212.72751827 380.3456506 212.19497433 379.58214474 211.64629269 C369.35763117 204.24907525 359.50311014 196.35907108 349.82775021 188.26006222 C348.81462765 187.4190295 347.80150509 186.57799679 346.75768185 185.71147823 C338.24787979 178.58108103 330.27138047 171.01605053 322.44859982 163.14165401 C320.50624536 161.18850734 318.55332063 159.24638602 316.59923458 157.30498409 C309.5485486 150.26210927 302.97441501 143.11481173 296.82775021 135.26006222 C295.81586937 134.02781143 294.80066646 132.79827451 293.78087521 131.57256222 C274.96900923 108.63507819 259.39805928 82.91134215 247.45275021 55.76006222 C243.7143946 47.5117718 239.40715346 42.49036385 230.82775021 39.26006222 C227.91290613 38.40752731 225.32227035 38.13376096 222.28900909 38.12977695 C221.37844554 38.12615261 220.467882 38.12252826 219.52972561 38.11879408 C218.03484872 38.12039646 218.03484872 38.12039646 216.5097723 38.12203121 C215.44815882 38.11920993 214.38654533 38.11638865 213.29276174 38.11348188 C209.72376945 38.10512693 206.15480813 38.10379687 202.58580685 38.10234737 C200.03178476 38.09767991 197.4777635 38.09253646 194.92374325 38.08695126 C189.41806801 38.07566492 183.91239924 38.06718298 178.40671635 38.06083202 C169.70552331 38.0505047 161.00436843 38.02994143 152.30319881 38.00771236 C149.32630551 38.00023285 146.34941205 37.99281911 143.37251854 37.985425 C142.25661255 37.98264915 142.25661255 37.98264915 141.11816301 37.97981722 C132.65100112 37.95889272 124.18383503 37.94006251 115.71666622 37.92217159 C114.94267994 37.92053341 114.16869366 37.91889523 113.37125324 37.9172074 C100.8233638 37.89091177 88.27547142 37.87227355 75.72756607 37.85557969 C62.84636927 37.83816548 49.96523029 37.80932876 37.08407968 37.77069032 C29.1377346 37.74728137 21.19148379 37.73329495 13.24510395 37.73136269 C7.15816978 37.72900611 1.07138326 37.71115278 -5.01550961 37.68749332 C-7.51447954 37.68027963 -10.01347026 37.67820932 -12.51244831 37.6815958 C-15.91760039 37.68547398 -19.32219852 37.67108894 -22.72728825 37.65206051 C-23.72164212 37.6575902 -24.71599599 37.6631199 -25.74048179 37.66881716 C-34.27570554 37.58619298 -34.27570554 37.58619298 -38.17224979 34.26006222 C-39.42224979 31.57256222 -39.42224979 31.57256222 -39.17224979 28.26006222 C-37.22557045 25.23865366 -34.67555837 22.8231768 -32.17224979 20.26006222 C-30.84701819 18.74778591 -29.5218762 17.23542881 -28.19910526 15.72099972 C-20.27289589 6.75397497 -12.39727631 0.01899137 0 0 Z " fill="#0071B9" transform="translate(615.1722497940063,544.7399377822876)"/>
<path d="M0 0 C1.2210199 -0.00453111 2.4420398 -0.00906223 3.70006031 -0.01373065 C7.08194896 -0.02419233 10.46362474 -0.02570194 13.84551442 -0.02334189 C17.49601391 -0.02293333 21.14648182 -0.03397682 24.79696655 -0.04345703 C31.94736165 -0.0600614 39.09772377 -0.06556638 46.24813653 -0.06668179 C52.06358115 -0.06763282 57.87901491 -0.07174588 63.6944561 -0.07808304 C80.19441763 -0.09569629 96.69435315 -0.10492213 113.19432414 -0.10342209 C114.52826042 -0.10330222 114.52826042 -0.10330222 115.8891449 -0.10317993 C117.22471698 -0.10305729 117.22471698 -0.10305729 118.58727031 -0.10293217 C133.004972 -0.10211993 147.42256905 -0.12124177 161.84024049 -0.14945666 C176.65609324 -0.17822106 191.47189504 -0.19199491 206.28777641 -0.19026911 C214.60086766 -0.18960629 222.91384932 -0.19505082 231.22691536 -0.21662521 C238.30775552 -0.23488418 245.38843645 -0.23914605 252.46929003 -0.22560637 C256.07805357 -0.2190995 259.68651205 -0.21887589 263.29524612 -0.23631287 C267.21853573 -0.25507356 271.14138565 -0.24242897 275.06469727 -0.22705078 C276.1900221 -0.23733791 277.31534693 -0.24762503 278.47477251 -0.25822389 C289.05710295 -0.16702097 299.72151245 1.98818299 307.93382263 9.04867554 C312.10836912 13.58240863 315.01387445 18.8999444 317.97679138 24.26742554 C318.71590404 25.59320888 319.45549997 26.9187229 320.19554138 28.24398804 C320.570578 28.9158313 320.94561462 29.58767456 321.33201599 30.27987671 C321.70979187 30.95639282 322.08756775 31.63290894 322.47679138 32.32992554 C322.85521179 33.00966431 323.2336322 33.68940308 323.6235199 34.38973999 C327.09159263 40.57396147 330.91448048 46.45543016 334.97679138 52.26742554 C335.54285095 53.0824353 335.54285095 53.0824353 336.12034607 53.91390991 C344.3355436 65.71526656 352.94603028 77.21837316 362.71116638 87.79086304 C364.60363961 89.85953205 366.45328477 91.95314274 368.29319763 94.06820679 C377.93007865 105.10826711 388.00639832 115.55211982 398.97679138 125.26742554 C400.25296326 126.43338257 400.25296326 126.43338257 401.55491638 127.62289429 C408.14507957 133.64315342 415.0208301 139.2735038 421.96897888 144.87289429 C425.87123583 148.05631443 425.87123583 148.05631443 426.97679138 150.26742554 C427.67582051 157.37422165 427.67582051 157.37422165 424.72679138 161.14242554 C419.50381476 165.17836202 415.67106246 165.55735657 409.12162781 165.52812195 C408.21730601 165.5319475 407.31298421 165.53577304 406.38125873 165.53971452 C403.34435929 165.55005128 400.30764869 165.54605102 397.27073669 165.54208374 C395.09596074 165.54642992 392.92118632 165.55161275 390.74641418 165.55757141 C384.83306215 165.57098487 378.91977394 165.57153731 373.00640965 165.56900811 C368.07109586 165.56793968 363.13579505 165.57281865 358.20048404 165.57761353 C346.55559748 165.5887175 334.91074318 165.58914156 323.26585388 165.58309937 C311.25302729 165.57706203 299.24033536 165.5893625 287.2275269 165.61066943 C276.91572169 165.62828679 266.60395376 165.63428645 256.29213405 165.63103169 C250.13267887 165.62921842 243.97330722 165.63185917 237.81386566 165.64574623 C232.0190486 165.65832154 226.22441402 165.65638311 220.42959976 165.64333534 C218.30438043 165.64096913 216.17914826 165.64370583 214.05394363 165.65195847 C211.14904749 165.66242396 208.24476383 165.65432649 205.33988953 165.64164734 C204.50213022 165.64902162 203.6643709 165.65639591 202.80122495 165.66399366 C189.80129521 165.54491958 181.70387443 158.26600988 172.97361755 149.43515015 C169.81366176 146.18965677 166.78301882 142.86114909 163.84397888 139.41586304 C161.94907118 137.23552991 159.99769276 135.11386076 158.0322113 132.99716187 C152.42182999 126.94821516 147.11092135 120.72962698 141.97679138 114.26742554 C141.49435974 113.67348999 141.0119281 113.07955444 140.51487732 112.46762085 C126.03613796 94.63591028 113.1551227 75.39122167 101.76731873 55.44564819 C98.19546718 49.27245564 94.54661003 44.67915076 87.97679138 41.51742554 C87.15179138 41.11008179 86.32679138 40.70273804 85.47679138 40.28305054 C81.33349731 38.59983732 77.40890079 38.14272419 72.96066284 38.12939453 C71.97511414 38.12394119 70.98956543 38.11848785 69.97415161 38.11286926 C68.90437576 38.11182693 67.83459991 38.11078461 66.73240662 38.10971069 C65.5969339 38.10462997 64.46146118 38.09954926 63.2915802 38.09431458 C60.82855434 38.08362316 58.36551884 38.07499817 55.90247917 38.06819534 C52.00695595 38.05640197 48.11154337 38.03694983 44.21606445 38.01507568 C33.14131074 37.95325308 22.06656383 37.8990949 10.99168396 37.86605835 C4.21664712 37.84576012 -2.55817808 37.80989059 -9.33309746 37.76530075 C-11.91710452 37.75111243 -14.50114765 37.74241196 -17.08519173 37.73924637 C-20.69308582 37.73435676 -24.30043449 37.71125021 -27.90821838 37.68392944 C-29.5159185 37.68843864 -29.5159185 37.68843864 -31.15609741 37.69303894 C-32.13882629 37.68194595 -33.12155518 37.67085297 -34.13406372 37.65942383 C-34.98668069 37.65611368 -35.83929766 37.65280354 -36.7177515 37.64939308 C-39.57805894 37.17549808 -40.95243066 36.27726858 -43.02320862 34.26742554 C-43.62875091 30.93892183 -43.8347743 28.57479809 -41.99537659 25.61166382 C-40.55996214 23.92205599 -39.05012451 22.37538686 -37.46070862 20.82992554 C-36.35171008 19.69801918 -35.24363307 18.5652092 -34.13648987 17.43148804 C-33.59846741 16.89040405 -33.06044495 16.34932007 -32.50611877 15.7918396 C-30.61468784 13.84747102 -28.87960838 11.79198529 -27.14820862 9.70492554 C-19.42392864 0.82106842 -11.13803962 -0.03023541 0 0 Z " fill="#E47D1C" transform="translate(519.0232086181641,610.7325744628906)"/>
<path d="M0 0 C1.69774982 -0.00542716 3.39549493 -0.01255315 5.0932312 -0.02124023 C9.68431794 -0.03940872 14.27504337 -0.03243219 18.86613607 -0.01972389 C23.68429595 -0.00955925 28.50242599 -0.01899947 33.32058716 -0.02526855 C41.41234864 -0.03253629 49.50396387 -0.02298167 57.59570312 -0.00390625 C66.93034729 0.01784608 76.26464173 0.01081952 85.59927738 -0.01121187 C93.63271559 -0.02940839 101.66604897 -0.03190302 109.69950116 -0.0214572 C114.48910631 -0.0152437 119.27854753 -0.01432701 124.06814194 -0.02760315 C128.57451988 -0.03922256 133.08045054 -0.03102556 137.58678055 -0.00802612 C139.23341889 -0.00277075 140.88009535 -0.00419796 142.52671814 -0.01307678 C155.64326805 -0.07724083 166.02102119 1.40797341 175.79541016 10.85449219 C179.63065173 15.13733566 182.7577727 19.79761613 185.8265686 24.64974976 C187.73385422 27.66175579 189.69279893 30.64005218 191.64501953 33.62304688 C192.0317131 34.21642349 192.41840668 34.80980011 192.81681824 35.42115784 C201.15785945 48.17927276 210.52719434 60.17260378 220.24267578 71.90429688 C222.35604161 74.48887897 224.45597491 77.08255728 226.51220703 79.71289062 C227.25434448 80.65479248 227.25434448 80.65479248 228.01147461 81.61572266 C230.17817695 85.14164938 229.91016623 87.46944929 229.18017578 91.51757812 C226.58730258 94.83069388 224.05844013 96.9440772 220.18017578 98.51757812 C217.59355223 98.77057779 217.59355223 98.77057779 214.59786415 98.77484703 C212.88286262 98.78452037 212.88286262 98.78452037 211.13321459 98.79438913 C209.24832058 98.78974332 209.24832058 98.78974332 207.3253479 98.78500366 C205.97735952 98.78873958 204.62937331 98.79334086 203.28139055 98.79873431 C199.5736722 98.81098698 195.86604392 98.81070119 192.15830994 98.80834556 C188.16094059 98.80793796 184.16360035 98.81897101 180.16624451 98.82846069 C172.33345275 98.8450839 164.50069109 98.85057083 156.66788317 98.85168545 C150.30217832 98.85263526 143.93648341 98.85674222 137.57078171 98.8630867 C119.52943144 98.88070242 101.48810499 98.88992501 83.44674607 98.88842575 C82.47383647 98.88834584 81.50092687 98.88826593 80.49853516 98.88818359 C79.03739241 98.88806095 79.03739241 98.88806095 77.54673164 98.88793583 C61.75650748 98.88712275 45.96637868 98.90626504 30.17618211 98.93446033 C13.96938184 98.96317156 -2.2373719 98.97700161 -18.44419825 98.97527277 C-27.54571917 98.97460828 -36.64714012 98.98012654 -45.74863815 99.00162888 C-53.49726666 99.0198175 -61.24574989 99.02420713 -68.99439047 99.01061003 C-72.94858361 99.0040687 -76.90249785 99.00400488 -80.85666466 99.02131653 C-84.47641745 99.03700126 -88.09566913 99.03423137 -91.71540935 99.01674826 C-93.64541315 99.01220878 -95.57543221 99.02737177 -97.50537622 99.04322755 C-103.87154466 98.99224725 -108.0347873 98.9218724 -112.81982422 94.51757812 C-115.17045236 91.31217612 -115.21790336 88.41875375 -114.81982422 84.51757812 C-112.53212875 78.94074619 -108.12230857 77.09601362 -103.06982422 74.39257812 C-94.10249636 69.39956179 -85.89263213 63.84171985 -77.81982422 57.51757812 C-76.84658203 56.75703125 -75.87333984 55.99648438 -74.87060547 55.21289062 C-67.8996284 49.62417577 -61.31905508 43.6413376 -54.81982422 37.51757812 C-54.03736328 36.78925781 -53.25490234 36.0609375 -52.44873047 35.31054688 C-47.985732 31.02256796 -44.10289126 26.46172853 -40.31982422 21.58007812 C-33.50335349 12.79479819 -33.50335349 12.79479819 -30.19482422 8.89257812 C-29.24736328 7.75949219 -29.24736328 7.75949219 -28.28076172 6.60351562 C-19.8831163 -0.51448859 -10.4262483 -0.05606864 0 0 Z " fill="#BB2034" transform="translate(416.81982421875,677.482421875)"/>
<path d="M0 0 C0.82814209 0.00491455 1.65628418 0.0098291 2.50952148 0.01489258 C16.4245646 0.27923095 28.40255553 4.55560694 38.63671875 14.1171875 C46.6875 22.73535714 46.6875 22.73535714 46.6875 27.3125 C47.3475 27.3125 48.0075 27.3125 48.6875 27.3125 C48.95175781 26.73242188 49.21601563 26.15234375 49.48828125 25.5546875 C56.07193672 13.24518184 68.91750132 5.68838992 81.75 1.4375 C97.61277793 -2.41357903 115.76231338 -0.07531717 130.00390625 7.66015625 C142.94340205 15.62726938 149.80269674 28.67870324 153.40234375 43.1953125 C155.29388486 52.88773483 155.84143506 62.702169 155.80102539 72.55737305 C155.80117142 73.51482925 155.80131744 74.47228546 155.8014679 75.45875549 C155.80077881 78.58060074 155.7930341 81.7023841 155.78515625 84.82421875 C155.78328849 87.00568102 155.78186628 89.18714372 155.78086853 91.36860657 C155.7770715 97.07804547 155.76726558 102.78745846 155.75616455 108.49688721 C155.74588959 114.33581187 155.74135793 120.17474076 155.73632812 126.01367188 C155.7256405 137.44662773 155.70806683 148.87955765 155.6875 160.3125 C145.4575 160.3125 135.2275 160.3125 124.6875 160.3125 C124.66562622 155.77193848 124.66562622 155.77193848 124.64331055 151.13964844 C124.59283026 141.10526459 124.5262117 131.07103374 124.45178509 121.03680038 C124.40717874 114.95683891 124.36790124 108.87694294 124.34106445 102.796875 C124.31493431 96.92231017 124.2744635 91.04799876 124.22431374 85.17359161 C124.20771054 82.93950823 124.19615571 80.70538109 124.18988609 78.47124481 C124.60873853 56.02686234 124.60873853 56.02686234 114.27734375 36.8203125 C106.69994102 29.99054684 98.54427427 29.32351316 88.6875 29.3125 C79.62894169 30.01323236 71.03142751 33.37567355 64.8125 40.125 C53.55656341 54.41951102 54.23058659 72.63057268 54.17578125 90 C54.15889436 92.03980561 54.14073889 94.07960108 54.12138367 96.11938477 C54.07431241 101.43250351 54.04422772 106.74558109 54.01794434 112.05883789 C53.98791996 117.5028496 53.94146605 122.94671997 53.89648438 128.390625 C53.81094027 139.03119144 53.74490274 149.67174451 53.6875 160.3125 C43.7875 160.3125 33.8875 160.3125 23.6875 160.3125 C23.67291748 157.48816406 23.65833496 154.66382813 23.64331055 151.75390625 C23.59271261 142.36614984 23.52607489 132.97855492 23.45178509 123.59095764 C23.40727717 117.90570525 23.36797913 112.22052131 23.34106445 106.53515625 C23.31483464 101.03662945 23.27429676 95.53836888 23.22431374 90.04000854 C23.20777695 87.95436952 23.19618137 85.86868459 23.18988609 83.7829895 C23.60103127 58.72649699 23.60103127 58.72649699 13.27734375 36.703125 C6.17140796 30.26040988 -2.03788727 29.15314239 -11.3125 29.3125 C-21.76576264 30.63035318 -30.40083425 35.02820292 -36.97265625 43.34765625 C-46.58247414 57.44018803 -46.77351279 72.40014021 -46.82421875 88.828125 C-46.84109063 90.8960678 -46.85924419 92.9640005 -46.87861633 95.03192139 C-46.9258501 100.43716271 -46.95583102 105.84236307 -46.98205566 111.2477417 C-47.01199638 116.77852463 -47.05847988 122.30916678 -47.10351562 127.83984375 C-47.18924554 138.66400451 -47.25519314 149.48815141 -47.3125 160.3125 C-57.2125 160.3125 -67.1125 160.3125 -77.3125 160.3125 C-77.3125 108.8325 -77.3125 57.3525 -77.3125 4.3125 C-68.0725 4.3125 -58.8325 4.3125 -49.3125 4.3125 C-48.9825 10.9125 -48.6525 17.5125 -48.3125 24.3125 C-45.8375 20.8475 -45.8375 20.8475 -43.3125 17.3125 C-31.93372583 5.72683903 -16.02863815 -0.11370166 0 0 Z " fill="#BB2034" transform="translate(318.3125,890.6875)"/>
<path d="M0 0 C17.12119599 14.42454402 24.26670102 34.43730805 27 56 C27 63.26 27 70.52 27 78 C-13.59 78 -54.18 78 -96 78 C-93.11826254 91.44810815 -90.06394966 102.4913927 -78.64453125 110.69140625 C-76.14161792 112.23972008 -73.61415044 113.64868531 -71 115 C-70.24460937 115.391875 -69.48921875 115.78375 -68.7109375 116.1875 C-55.95262736 122.31870205 -41.45128096 122.95277077 -28.1015625 118.32421875 C-18.39842382 114.18144292 -9.88628671 107.82943007 -4 99 C-0.55255128 99.61454099 1.51220394 100.91211799 4.2578125 103.0546875 C5.04800781 103.66957031 5.83820313 104.28445313 6.65234375 104.91796875 C7.46832031 105.56378906 8.28429687 106.20960938 9.125 106.875 C9.94871094 107.51308594 10.77242187 108.15117188 11.62109375 108.80859375 C17.73382143 113.60073214 17.73382143 113.60073214 20 117 C17.69734167 119.69460017 15.35739175 122.35318589 13 125 C12.22462891 125.89525391 12.22462891 125.89525391 11.43359375 126.80859375 C-0.59767597 139.86508445 -19.29440728 146.87170993 -36.6862793 148.3034668 C-40.42138561 148.43550975 -44.13773634 148.46831882 -47.875 148.4375 C-49.19129395 148.42847656 -50.50758789 148.41945313 -51.86376953 148.41015625 C-73.52777066 148.02439934 -92.76270286 140.70952742 -108 125 C-125.8845876 104.90677357 -129.48213776 79.92952717 -128 54 C-126.83932188 44.10915961 -123.7255096 34.76015523 -119 26 C-118.55914063 25.16210938 -118.11828125 24.32421875 -117.6640625 23.4609375 C-113.95486176 16.84175607 -109.30649181 11.39782557 -104 6 C-103.38511719 5.37222656 -102.77023437 4.74445312 -102.13671875 4.09765625 C-75.20419433 -21.33541285 -28.99454892 -21.75655579 0 0 Z M-82.9375 23.0625 C-91.37322099 32.13370366 -94.75484976 40.5484976 -96 53 C-65.97 53 -35.94 53 -5 53 C-6.32112158 39.7887842 -8.98504035 28.58967608 -18.9140625 19.1875 C-38.21508949 3.80819563 -65.30009113 6.6814545 -82.9375 23.0625 Z " fill="#BB2034" transform="translate(636,906)"/>
<path d="M0 0 C9.86660397 8.69375357 14.89158339 21.05363731 15.82515335 34.04796219 C15.91203926 37.00545703 15.94154877 39.95774005 15.94775391 42.91650391 C15.96282234 44.58655487 15.96282234 44.58655487 15.97819519 46.29034424 C16.00886129 49.93704759 16.02601616 53.58367809 16.04296875 57.23046875 C16.06169372 59.77209086 16.08126811 62.31370684 16.10165405 64.85531616 C16.14762088 70.84025732 16.18507903 76.82519211 16.21832693 82.81021249 C16.25669464 89.63020268 16.30606584 96.45009977 16.35631108 103.27001119 C16.45932472 117.28541386 16.54723137 131.30086381 16.62890625 145.31640625 C7.71890625 145.31640625 -1.19109375 145.31640625 -10.37109375 145.31640625 C-11.36109375 134.92140625 -11.36109375 134.92140625 -12.37109375 124.31640625 C-13.67046875 125.82203125 -14.96984375 127.32765625 -16.30859375 128.87890625 C-26.55549747 140.17922998 -38.87092781 147.45704545 -54.35058594 148.52124023 C-57.65158074 148.62020964 -60.94369361 148.63845076 -64.24609375 148.62890625 C-65.35339844 148.64501953 -66.46070313 148.66113281 -67.6015625 148.67773438 C-82.88107787 148.68671176 -96.90373528 143.62894967 -108.10546875 133.0234375 C-118.46078952 120.65061458 -119.44430962 106.79409765 -118.37109375 91.31640625 C-116.46683586 80.45295914 -110.2894976 70.93373875 -101.78515625 63.97265625 C-80.95542118 49.68170533 -56.14244834 47.78201856 -31.68359375 48.12890625 C-29.79493279 48.14401034 -27.90625986 48.15768842 -26.01757812 48.16992188 C-21.46844484 48.20240531 -16.91990883 48.25385643 -12.37109375 48.31640625 C-12.83229382 45.57720862 -13.29923315 42.83919981 -13.76953125 40.1015625 C-13.96373657 38.94267517 -13.96373657 38.94267517 -14.16186523 37.76037598 C-15.75060718 28.57469308 -18.54163602 23.1350443 -25.82421875 17.078125 C-36.54566134 9.66191241 -49.48357746 9.44877179 -61.9296875 11.5390625 C-71.88497305 13.78775924 -79.52169229 18.48591226 -87.55859375 24.5234375 C-90.37109375 26.31640625 -90.37109375 26.31640625 -94.37109375 26.31640625 C-97.4521407 24.08312251 -100.01636086 21.27344858 -102.68359375 18.56640625 C-103.43705078 17.83679688 -104.19050781 17.1071875 -104.96679688 16.35546875 C-105.67384766 15.64648438 -106.38089844 14.9375 -107.109375 14.20703125 C-107.75946533 13.55766602 -108.40955566 12.90830078 -109.0793457 12.23925781 C-110.37109375 10.31640625 -110.37109375 10.31640625 -110.2121582 8.20532227 C-106.49952024 -0.13275609 -92.37666414 -5.7144829 -84.32958984 -8.95654297 C-57.26443667 -19.00391596 -23.23030171 -18.38434568 0 0 Z M-81.40234375 83.23828125 C-87.24946484 89.61260178 -88.85986121 94.67476045 -88.6796875 103.3125 C-88.0526894 109.41581066 -85.55368874 113.48032192 -81.12109375 117.62890625 C-72.02198913 124.79907862 -60.48587914 124.95627662 -49.37109375 124.31640625 C-38.32292007 122.73809572 -28.9953718 118.27262069 -21.90234375 109.5234375 C-14.65877653 99.08309189 -12.2913189 88.02642308 -12.34765625 75.51953125 C-12.35273193 74.05241699 -12.35273193 74.05241699 -12.35791016 72.55566406 C-12.36226074 71.81670898 -12.36661133 71.07775391 -12.37109375 70.31640625 C-49.13550493 68.54711758 -49.13550493 68.54711758 -81.40234375 83.23828125 Z " fill="#BB2034" transform="translate(952.37109375,905.68359375)"/>
<path d="M0 0 C7.97256488 7.15939862 13.43371571 18.12776408 14.32853889 28.80929375 C14.41345778 31.35103795 14.43801182 33.88628073 14.43969727 36.42944336 C14.4481366 37.38841522 14.45657593 38.34738708 14.465271 39.3354187 C14.49094439 42.48924295 14.50317438 45.64297331 14.515625 48.796875 C14.53182448 51.00916765 14.54900699 53.2214533 14.56712341 55.43373108 C14.61273451 61.25502235 14.64755304 67.07632361 14.67932129 72.89770508 C14.73121778 82.18112801 14.79713312 91.46444494 14.86753654 100.74774361 C14.89005225 103.96503439 14.90653461 107.18231277 14.92225647 110.39964294 C14.99199305 121.81352609 15.35198104 133.13114883 16.13671875 144.51953125 C7.22671875 144.51953125 -1.68328125 144.51953125 -10.86328125 144.51953125 C-12.03797569 142.17014237 -12.06363014 140.5687992 -12.1796875 137.94921875 C-12.22158203 137.05332031 -12.26347656 136.15742187 -12.30664062 135.234375 C-12.34595703 134.29722656 -12.38527344 133.36007812 -12.42578125 132.39453125 C-12.46896484 131.44964844 -12.51214844 130.50476562 -12.55664062 129.53125 C-12.66287197 127.19416033 -12.76491301 124.85696295 -12.86328125 122.51953125 C-13.31316406 123.14859375 -13.76304688 123.77765625 -14.2265625 124.42578125 C-23.55950593 136.84476809 -36.40189072 145.15809256 -51.86328125 147.51953125 C-70.180253 148.97079442 -89.08469634 148.89536182 -103.86328125 136.51953125 C-106.61328125 134.01953125 -106.61328125 134.01953125 -108.86328125 131.51953125 C-109.70890625 130.59140625 -110.55453125 129.66328125 -111.42578125 128.70703125 C-119.81007116 118.37168016 -120.70305732 106.42275725 -119.86328125 93.51953125 C-118.06382715 80.81750232 -111.92089913 70.48240989 -101.86328125 62.51953125 C-81.22394194 48.82664799 -57.25351883 46.99054875 -33.17578125 47.33203125 C-31.28712029 47.34713534 -29.39844736 47.36081342 -27.50976562 47.37304688 C-22.96063234 47.40553031 -18.41209633 47.45698143 -13.86328125 47.51953125 C-14.15126696 44.94816308 -14.44806373 42.37832944 -14.75 39.80859375 C-14.83020386 39.08422119 -14.91040771 38.35984863 -14.99304199 37.61352539 C-15.64229753 32.17465438 -16.74328439 28.00178027 -19.86328125 23.51953125 C-20.54390625 22.48828125 -21.22453125 21.45703125 -21.92578125 20.39453125 C-28.53415083 13.02055788 -38.27727432 10.07507049 -47.86328125 9.51953125 C-65.14004235 9.38256938 -79.56636901 15.77532136 -92.86328125 26.51953125 C-96.08443606 25.11238585 -98.1361815 23.45004388 -100.53515625 20.89453125 C-101.53095703 19.83492187 -101.53095703 19.83492187 -102.546875 18.75390625 C-103.22878906 18.0165625 -103.91070313 17.27921875 -104.61328125 16.51953125 C-105.31066406 15.7821875 -106.00804687 15.04484375 -106.7265625 14.28515625 C-111.86328125 8.77650287 -111.86328125 8.77650287 -111.86328125 6.51953125 C-100.76087443 -3.46450126 -87.27939704 -9.8764398 -72.86328125 -13.48046875 C-71.9815625 -13.70605469 -71.09984375 -13.93164062 -70.19140625 -14.1640625 C-46.04586196 -19.22346123 -19.51720299 -15.50737932 0 0 Z M-85.23828125 84.89453125 C-89.16802557 91.24257977 -91.05356091 97.26015602 -89.359375 104.74609375 C-87.52293135 111.02148405 -85.10365864 115.6940362 -79.3046875 118.9609375 C-67.46629191 124.59903364 -53.92510592 125.51181515 -41.3515625 121.48828125 C-29.67152228 116.94095005 -22.27986478 109.86581701 -17.05078125 98.44140625 C-13.1919078 88.94654658 -13.65453963 79.6203062 -13.86328125 69.51953125 C-52.24945886 67.97260473 -52.24945886 67.97260473 -85.23828125 84.89453125 Z " fill="#0071B9" transform="translate(1185.86328125,906.48046875)"/>
<path d="M0 0 C10.2707623 8.4047717 10.2707623 8.4047717 11.796875 13.8359375 C11.89742187 14.90714844 11.89742187 14.90714844 12 16 C-2.95744681 27.95744681 -2.95744681 27.95744681 -11 33 C-11.37769531 32.56429687 -11.75539063 32.12859375 -12.14453125 31.6796875 C-19.31305166 23.92358345 -28.3521933 18.74940575 -39 18 C-47.57627088 17.83059218 -54.89343455 18.96675115 -62 24 C-65.21943289 27.37273921 -66.24013079 29.9446457 -66.5 34.5 C-66.22758448 40.08921502 -63.76222446 43.23777554 -59.875 47.125 C-51.71032622 52.44978725 -42.2620161 54.23635466 -32.875 56.3125 C-16.24986381 60.18038883 1.32368837 64.58962553 11.4375 79.625 C17.99425661 91.67977349 18.5080512 105.96482029 15 119 C10.74603803 130.76095368 2.19777334 139.64106562 -9 145 C-21.63828748 150.58761725 -32.84914442 152.39488357 -46.625 152.375 C-47.62078568 152.37368576 -47.62078568 152.37368576 -48.63668823 152.37234497 C-68.90106049 152.28409429 -84.56991751 147.63493479 -99.66015625 133.4296875 C-101.94255606 131.05964963 -103.9928002 128.60518773 -106 126 C-104.69248704 123.05206634 -103.38472387 121.19334952 -100.91796875 119.125 C-100.01401367 118.35929687 -100.01401367 118.35929687 -99.09179688 117.578125 C-98.14916992 116.79695312 -98.14916992 116.79695312 -97.1875 116 C-96.57068359 115.47921875 -95.95386719 114.9584375 -95.31835938 114.421875 C-94.11074666 113.40547832 -92.8971768 112.39610988 -91.67724609 111.39453125 C-90.18626919 110.15487185 -88.73986084 108.8620451 -87.30078125 107.5625 C-85 106 -85 106 -82.9375 106.01953125 C-80.51354333 107.24617061 -78.92704611 108.77140302 -77 110.6875 C-67.25223866 119.64707601 -55.79458315 123.52547257 -42.70703125 123.31640625 C-33.84887098 122.56033567 -25.68621424 119.94330155 -19 114 C-16.24063988 109.56631629 -16.36572886 105.06614038 -17 100 C-20.03748048 93.56054138 -24.81750849 90.1986007 -31.30859375 87.75390625 C-37.95086507 85.54297511 -44.69860086 83.80551396 -51.50341797 82.17651367 C-67.8944218 78.24373609 -85.23640402 73.6008229 -94.78125 58.46875 C-98.32204263 51.29637518 -99.52806435 45.63703777 -99.4375 37.6875 C-99.42992676 36.75905273 -99.42235352 35.83060547 -99.41455078 34.87402344 C-99.24833821 27.95618324 -98.38258021 22.13486597 -95 16 C-94.56429687 15.2059375 -94.12859375 14.411875 -93.6796875 13.59375 C-85.97485857 0.9628829 -72.41316867 -6.43701817 -58.3125 -10 C-38.53720061 -13.44603737 -16.78832205 -11.82123452 0 0 Z " fill="#BB2034" transform="translate(790,902)"/>
<path d="M0 0 C39.93 0 79.86 0 121 0 C121 27 121 27 117.3125 33.25 C115.56973579 34.86417721 113.79584419 36.44509203 112 38 C109.80375135 40.39808129 107.72226106 42.89035664 105.625 45.375 C104.50589463 46.66448876 103.38480643 47.95225942 102.26171875 49.23828125 C99.29120207 52.65546593 96.35598759 56.1008406 93.4375 59.5625 C89.64585511 64.05982362 85.83271698 68.53761799 82 73 C78.14861062 77.4849352 74.313669 81.98294536 70.5 86.5 C66.18843932 91.60677648 61.84614959 96.68632462 57.49145508 101.75634766 C53.18880378 106.76970163 48.92326746 111.81360795 44.66796875 116.8671875 C41.48130002 120.60907377 38.2365063 124.30113566 35 128 C79.55 128.495 79.55 128.495 125 129 C125 137.91 125 146.82 125 156 C82.76 156 40.52 156 -3 156 C-3 128 -3 128 0.6875 121.6875 C2.42962743 120.09305685 4.203595 118.53303165 6 117 C8.19954575 114.60465735 10.27902881 112.11096257 12.375 109.625 C13.49271069 108.33673325 14.61249694 107.05026426 15.734375 105.765625 C20.09319832 100.75118549 24.3765642 95.67391028 28.65722656 90.59277344 C30.93421431 87.89185198 33.2174219 85.19619693 35.5 82.5 C38.23981315 79.26301005 40.97895552 76.02546464 43.71484375 72.78515625 C47.9860772 67.72869066 52.26766974 62.68228374 56.58496094 57.66503906 C62.15736011 51.18805259 67.61437924 44.63446036 73 38 C75.97 34.37 78.94 30.74 82 27 C54.94 26.67 27.88 26.34 0 26 C0 17.42 0 8.84 0 0 Z " fill="#0071B9" transform="translate(1234,895)"/>
<path d="M0 0 C6.65911045 3.72910185 10.1792344 7.56129174 12.875 14.75 C13.78081989 21.9965591 13.07124498 28.80644729 8.61328125 34.7734375 C3.67976751 40.02846112 -1.4070574 42.80634803 -8.6875 43.25 C-15.13897875 43.03363943 -20.69182871 40.53061567 -25.54296875 36.29296875 C-30.39997785 30.89470936 -31.29291194 25.20686033 -31.125 18.20703125 C-30.47982808 11.86620099 -27.28972127 7.16472127 -22.875 2.75 C-16.20803032 -2.15531027 -7.72107759 -3.04469509 0 0 Z " fill="#E47D1C" transform="translate(1028.875,947.25)"/>
</svg>
